STARTFONT 2.1
FONT jis.jis6c00.16
SIZE 16 72 72
FONTBOUNDINGBOX 16 16 0 -2
STARTPROPERTIES 4
FONT_DESCENT 2
FONT_ASCENT 14
DEFAULT_CHAR 8
COPYRIGHT "Copyright (c) 1992 AT&T - All rights reserved."
ENDPROPERTIES
CHARS 161
STARTCHAR ch-8
ENCODING 8
SWIDTH 1000 0
DWIDTH 16 0
BBX 16 16 0 -2
BITMAP
0806
ff9c
0070
7f10
4110
5d7e
5510
5d10
4110
7f7f
2210
3e10
2210
3e11
2213
ff8e
ENDCHAR
STARTCHAR ch-15
ENCODING 15
SWIDTH 1000 0
DWIDTH 16 0
BBX 16 16 0 -2
BITMAP
000c
0078
3fc0
2040
2040
2040
2040
3fff
2040
2060
2020
2020
2030
2011
3e1b
e00e
ENDCHAR
STARTCHAR ch-17
ENCODING 17
SWIDTH 1000 0
DWIDTH 16 0
BBX 16 16 0 -2
BITMAP
0000
3ffc
2004
2004
2004
3ffc
2080
2080
3fff
2040
2040
2060
2020
2731
3c1b
e00e
ENDCHAR
STARTCHAR ch-19
ENCODING 19
SWIDTH 1000 0
DWIDTH 16 0
BBX 16 16 0 -2
BITMAP
1000
11fe
1102
ff02
2102
21fe
2110
2110
21ff
2110
2110
2118
3d08
016d
01c7
0702
ENDCHAR
STARTCHAR ch-20
ENCODING 20
SWIDTH 1000 0
DWIDTH 16 0
BBX 16 16 0 -2
BITMAP
1000
1000
3ffe
2000
6ff8
c000
3ff8
0008
0008
0008
0008
0008
000d
0005
0007
0002
ENDCHAR
STARTCHAR ch-23
ENCODING 23
SWIDTH 1000 0
DWIDTH 16 0
BBX 16 16 0 -2
BITMAP
1000
1000
3ffe
2000
6ff8
c000
3ff8
0008
0048
18c8
0d88
0708
0d8d
18c5
3047
e002
ENDCHAR
STARTCHAR ch-27
ENCODING 27
SWIDTH 1000 0
DWIDTH 16 0
BBX 16 16 0 -2
BITMAP
1000
1000
3ffe
2000
6ff8
c000
3ff8
0888
18c8
7078
1fc8
0448
0c4d
18c5
3087
e382
ENDCHAR
STARTCHAR ch-35
ENCODING 35
SWIDTH 1000 0
DWIDTH 16 0
BBX 16 16 0 -2
BITMAP
1000
1000
3ffe
2000
6ff8
c000
3ff8
0208
1248
0a88
7ff8
0a88
1acd
3265
6237
0202
ENDCHAR
STARTCHAR ch-36
ENCODING 36
SWIDTH 1000 0
DWIDTH 16 0
BBX 16 16 0 -2
BITMAP
1000
1000
3ffe
2000
6ff8
c000
3ff8
0008
3fe8
2228
2fa8
2228
272d
2da5
2027
3fe2
ENDCHAR
STARTCHAR ch-52
ENCODING 52
SWIDTH 1000 0
DWIDTH 16 0
BBX 16 16 0 -2
BITMAP
0100
0100
0100
0104
fd0c
0598
05b0
0dc0
0940
1960
1130
3118
610c
c107
0100
0700
ENDCHAR
STARTCHAR ch-55
ENCODING 55
SWIDTH 1000 0
DWIDTH 16 0
BBX 16 16 0 -2
BITMAP
0100
0100
3102
1906
090c
0198
fdb0
05c0
0d40
0960
1930
3118
610c
c107
0100
0700
ENDCHAR
STARTCHAR ch-56
ENCODING 56
SWIDTH 1000 0
DWIDTH 16 0
BBX 16 16 0 -2
BITMAP
0700
01c0
0040
0000
1f80
0086
008c
7cd8
04f0
0ca0
08b0
1898
308c
6086
c083
0780
ENDCHAR
STARTCHAR ch-62
ENCODING 62
SWIDTH 1000 0
DWIDTH 16 0
BBX 16 16 0 -2
BITMAP
0000
63fc
3204
1204
0204
c204
6204
2204
021c
1200
1200
3200
2201
6303
41fe
c000
ENDCHAR
STARTCHAR ch-64
ENCODING 64
SWIDTH 1000 0
DWIDTH 16 0
BBX 16 16 0 -2
BITMAP
0000
6000
33ff
1010
0010
c010
6010
2010
0010
1010
1010
3010
2010
6010
4010
c070
ENDCHAR
STARTCHAR ch-65
ENCODING 65
SWIDTH 1000 0
DWIDTH 16 0
BBX 16 16 0 -2
BITMAP
0020
6020
3020
1020
0020
c020
67ff
2020
0020
1020
1020
3020
2020
6020
4020
c020
ENDCHAR
STARTCHAR ch-66
ENCODING 66
SWIDTH 1000 0
DWIDTH 16 0
BBX 16 16 0 -2
BITMAP
0130
0118
0108
ffff
0100
2104
310c
1918
09b0
01c0
0560
0d30
1918
710c
c107
0700
ENDCHAR
STARTCHAR ch-78
ENCODING 78
SWIDTH 1000 0
DWIDTH 16 0
BBX 16 16 0 -2
BITMAP
0000
63f8
3208
1208
0208
c2c8
6268
2228
0208
1208
1208
3208
2208
6609
4409
cc07
ENDCHAR
STARTCHAR ch-80
ENCODING 80
SWIDTH 1000 0
DWIDTH 16 0
BBX 16 16 0 -2
BITMAP
0020
3020
1820
087f
0041
c0c1
6183
2362
0036
1014
100c
3018
2030
6060
41c0
c700
ENDCHAR
STARTCHAR ch-85
ENCODING 85
SWIDTH 1000 0
DWIDTH 16 0
BBX 16 16 0 -2
BITMAP
0020
6020
3020
1020
0222
c222
6222
2222
0222
1222
1222
3222
2222
6222
43fe
c000
ENDCHAR
STARTCHAR ch-87
ENCODING 87
SWIDTH 1000 0
DWIDTH 16 0
BBX 16 16 0 -2
BITMAP
0000
63fe
3020
1020
0020
c020
6020
27ff
0020
1020
3020
2020
6020
4020
c020
0020
ENDCHAR
STARTCHAR ch-90
ENCODING 90
SWIDTH 1000 0
DWIDTH 16 0
BBX 16 16 0 -2
BITMAP
6000
37fe
1080
0080
0080
cfff
6100
2100
0100
13fe
1002
3002
2002
6006
4004
c03c
ENDCHAR
STARTCHAR ch-93
ENCODING 93
SWIDTH 1000 0
DWIDTH 16 0
BBX 16 16 0 -2
BITMAP
0080
6080
3080
1080
0fff
c108
6108
2108
0308
1218
1210
37d0
2070
60dc
4386
ce02
ENDCHAR
STARTCHAR ch-94
ENCODING 94
SWIDTH 1000 0
DWIDTH 16 0
BBX 16 16 0 -2
BITMAP
0000
3ffc
0100
0100
ffff
0000
0100
0104
7d0c
0598
0dc0
0960
1930
311c
e107
0700
ENDCHAR
STARTCHAR ch-95
ENCODING 95
SWIDTH 1000 0
DWIDTH 16 0
BBX 16 16 0 -2
BITMAP
0000
6000
33fe
1020
0020
c020
6020
2020
0020
1020
1020
3020
2020
6020
47ff
c000
ENDCHAR
STARTCHAR ch-96
ENCODING 96
SWIDTH 1000 0
DWIDTH 16 0
BBX 16 16 0 -2
BITMAP
0020
6120
3120
1126
013a
c162
61a2
2722
0122
1122
1126
3120
2100
6101
4183
c0fe
ENDCHAR
STARTCHAR ch-98
ENCODING 98
SWIDTH 1000 0
DWIDTH 16 0
BBX 16 16 0 -2
BITMAP
0020
6020
3020
1020
0020
c020
63fe
2020
0020
1020
1020
3020
2020
6020
47ff
c000
ENDCHAR
STARTCHAR ch-104
ENCODING 104
SWIDTH 1000 0
DWIDTH 16 0
BBX 16 16 0 -2
BITMAP
0000
63fe
3202
1202
0202
c202
6202
23fe
0202
1202
1202
3202
2202
6202
43fe
c000
ENDCHAR
STARTCHAR ch-106
ENCODING 106
SWIDTH 1000 0
DWIDTH 16 0
BBX 16 16 0 -2
BITMAP
0000
6000
33fe
1020
0020
c020
6020
2020
01fc
1020
1020
3020
2020
6020
47ff
c000
ENDCHAR
STARTCHAR ch-112
ENCODING 112
SWIDTH 1000 0
DWIDTH 16 0
BBX 16 16 0 -2
BITMAP
0040
6040
3040
1040
0040
cfff
60a0
20a0
00a0
11b0
1110
3118
2348
626c
4626
cc03
ENDCHAR
STARTCHAR ch-114
ENCODING 114
SWIDTH 1000 0
DWIDTH 16 0
BBX 16 16 0 -2
BITMAP
0000
67fc
3084
108c
0088
c09e
6082
21c6
0144
116c
1138
3310
2238
666c
4cc6
c183
ENDCHAR
STARTCHAR ch-115
ENCODING 115
SWIDTH 1000 0
DWIDTH 16 0
BBX 16 16 0 -2
BITMAP
0000
63fe
3200
1200
0200
c3fc
6284
228c
02c8
1258
1270
3220
2670
64d8
4d8c
c307
ENDCHAR
STARTCHAR ch-122
ENCODING 122
SWIDTH 1000 0
DWIDTH 16 0
BBX 16 16 0 -2
BITMAP
0040
6040
3040
13fc
0044
c044
6044
2044
07ff
10a0
10b0
3190
2118
630c
4606
cc03
ENDCHAR
STARTCHAR ch-125
ENCODING 125
SWIDTH 1000 0
DWIDTH 16 0
BBX 16 16 0 -2
BITMAP
0200
6200
37fe
1400
0df8
c000
67f8
2008
0008
1008
1008
3008
200d
6005
4007
c002
ENDCHAR
STARTCHAR ch-126
ENCODING 126
SWIDTH 1000 0
DWIDTH 16 0
BBX 16 16 0 -2
BITMAP
0088
6088
3088
118c
0104
c306
6603
21fc
0044
1044
1044
30c4
2084
618c
4308
c638
ENDCHAR
STARTCHAR ch-129
ENCODING 129
SWIDTH 1000 0
DWIDTH 16 0
BBX 16 16 0 -2
BITMAP
00c0
6060
3030
1010
0080
c080
6080
2080
0286
1282
1683
3481
2c84
6084
40cc
c078
ENDCHAR
STARTCHAR ch-130
ENCODING 130
SWIDTH 1000 0
DWIDTH 16 0
BBX 16 16 0 -2
BITMAP
0006
601c
31f0
1100
0100
c1ff
6108
2108
0108
1108
1108
3108
2308
6208
4608
c008
ENDCHAR
STARTCHAR ch-131
ENCODING 131
SWIDTH 1000 0
DWIDTH 16 0
BBX 16 16 0 -2
BITMAP
000c
6038
33e0
1020
0020
c020
67ff
2020
0070
1050
1050
30d8
2088
618c
4306
c603
ENDCHAR
STARTCHAR ch-136
ENCODING 136
SWIDTH 1000 0
DWIDTH 16 0
BBX 16 16 0 -2
BITMAP
0040
6040
3040
17fe
0442
c442
6442
2040
00e0
10a0
10a0
31a0
2120
6321
4633
cc1e
ENDCHAR
STARTCHAR ch-140
ENCODING 140
SWIDTH 1000 0
DWIDTH 16 0
BBX 16 16 0 -2
BITMAP
0040
6046
307c
17c0
0040
c040
6244
2244
0244
1244
1244
33fc
2040
6041
4063
c03e
ENDCHAR
STARTCHAR ch-141
ENCODING 141
SWIDTH 1000 0
DWIDTH 16 0
BBX 16 16 0 -2
BITMAP
0000
63fe
3080
1080
0080
c0f8
6088
2188
0108
1108
11f8
3008
2008
6008
47ff
c000
ENDCHAR
STARTCHAR ch-144
ENCODING 144
SWIDTH 1000 0
DWIDTH 16 0
BBX 16 16 0 -2
BITMAP
0020
6020
3020
1020
07ff
c0a8
60a8
20a8
01ac
1124
1326
3222
2623
6020
4020
c020
ENDCHAR
STARTCHAR ch-146
ENCODING 146
SWIDTH 1000 0
DWIDTH 16 0
BBX 16 16 0 -2
BITMAP
0080
6080
30fc
1184
010c
c308
6638
2000
03fc
1104
118c
30d8
2070
60d8
418c
c707
ENDCHAR
STARTCHAR ch-147
ENCODING 147
SWIDTH 1000 0
DWIDTH 16 0
BBX 16 16 0 -2
BITMAP
0100
0106
fd8c
05d8
0d60
1930
311c
e707
0000
3ffc
2004
2004
3ffc
2004
2004
3ffc
ENDCHAR
STARTCHAR ch-150
ENCODING 150
SWIDTH 1000 0
DWIDTH 16 0
BBX 16 16 0 -2
BITMAP
0020
6020
3020
1020
07ff
c421
6421
2421
0421
1421
17ff
3020
2020
6020
4020
c020
ENDCHAR
STARTCHAR ch-153
ENCODING 153
SWIDTH 1000 0
DWIDTH 16 0
BBX 16 16 0 -2
BITMAP
0040
6040
3040
1248
024c
c646
6443
2c40
0044
11cc
1008
3018
2030
6060
41c0
c700
ENDCHAR
STARTCHAR ch-154
ENCODING 154
SWIDTH 1000 0
DWIDTH 16 0
BBX 16 16 0 -2
BITMAP
0020
6020
3020
1020
0220
c220
623e
2220
0220
1220
1220
3220
2220
6220
4fff
c000
ENDCHAR
STARTCHAR ch-155
ENCODING 155
SWIDTH 1000 0
DWIDTH 16 0
BBX 16 16 0 -2
BITMAP
0020
6020
3020
17ff
0020
c020
63fe
2222
0222
1222
1222
3222
2226
6020
4020
c020
ENDCHAR
STARTCHAR ch-161
ENCODING 161
SWIDTH 1000 0
DWIDTH 16 0
BBX 16 16 0 -2
BITMAP
0000
61f8
3108
1108
0108
c30f
6600
2000
03fc
1104
118c
30d8
2070
60d8
418c
c707
ENDCHAR
STARTCHAR ch-162
ENCODING 162
SWIDTH 1000 0
DWIDTH 16 0
BBX 16 16 0 -2
BITMAP
0000
61fe
3102
1102
0102
c102
61fe
2110
0110
1110
1118
3108
230c
6204
4606
cc03
ENDCHAR
STARTCHAR ch-171
ENCODING 171
SWIDTH 1000 0
DWIDTH 16 0
BBX 16 16 0 -2
BITMAP
0020
6020
3020
17ff
0020
c020
6020
23fe
00a8
10a8
10a8
31ac
2124
6326
4623
c020
ENDCHAR
STARTCHAR ch-174
ENCODING 174
SWIDTH 1000 0
DWIDTH 16 0
BBX 16 16 0 -2
BITMAP
0000
61fc
3104
1104
0104
c1fc
6104
2104
0104
11fc
1104
3104
2104
6104
47ff
c000
ENDCHAR
STARTCHAR ch-177
ENCODING 177
SWIDTH 1000 0
DWIDTH 16 0
BBX 16 16 0 -2
BITMAP
0020
6020
3020
17ff
0401
c401
6080
2086
009c
10f0
1080
3080
2080
6081
40c3
c07e
ENDCHAR
STARTCHAR ch-179
ENCODING 179
SWIDTH 1000 0
DWIDTH 16 0
BBX 16 16 0 -2
BITMAP
6000
37ff
1004
0004
03c4
c244
6244
2244
0244
1244
13c4
3004
2004
6004
4004
c01c
ENDCHAR
STARTCHAR ch-184
ENCODING 184
SWIDTH 1000 0
DWIDTH 16 0
BBX 16 16 0 -2
BITMAP
0090
6090
37fe
1092
0092
c7fe
6490
2490
0490
17ff
1091
3091
2193
6112
4316
c610
ENDCHAR
STARTCHAR ch-185
ENCODING 185
SWIDTH 1000 0
DWIDTH 16 0
BBX 16 16 0 -2
BITMAP
0020
6020
3020
1020
03fe
c222
6222
2222
0222
13fe
1222
3222
2222
6222
43fe
c000
ENDCHAR
STARTCHAR ch-186
ENCODING 186
SWIDTH 1000 0
DWIDTH 16 0
BBX 16 16 0 -2
BITMAP
0000
67fe
3442
1442
0442
c442
6442
27fe
0442
1442
1442
3442
2442
6442
47fe
c000
ENDCHAR
STARTCHAR ch-187
ENCODING 187
SWIDTH 1000 0
DWIDTH 16 0
BBX 16 16 0 -2
BITMAP
0040
6040
30c0
1084
0184
c13e
67e3
2000
0000
1000
13fe
3202
2202
6202
4202
c3fe
ENDCHAR
STARTCHAR ch-188
ENCODING 188
SWIDTH 1000 0
DWIDTH 16 0
BBX 16 16 0 -2
BITMAP
0000
63fe
3042
1042
00c2
c086
6184
231c
0000
11fe
1102
3102
2102
6102
4102
c1fe
ENDCHAR
STARTCHAR ch-189
ENCODING 189
SWIDTH 1000 0
DWIDTH 16 0
BBX 16 16 0 -2
BITMAP
0020
6020
3020
1020
07ff
c020
6020
2020
0020
13fe
1202
3202
2202
6202
4202
c3fe
ENDCHAR
STARTCHAR ch-190
ENCODING 190
SWIDTH 1000 0
DWIDTH 16 0
BBX 16 16 0 -2
BITMAP
0020
6020
3020
1020
003f
c020
6020
2020
0020
13fe
1202
3202
2202
6202
4202
c3fe
ENDCHAR
STARTCHAR ch-191
ENCODING 191
SWIDTH 1000 0
DWIDTH 16 0
BBX 16 16 0 -2
BITMAP
6108
3108
1108
030c
0204
c606
6c03
2000
03fc
1204
1204
3204
2204
6204
4204
c3fc
ENDCHAR
STARTCHAR ch-193
ENCODING 193
SWIDTH 1000 0
DWIDTH 16 0
BBX 16 16 0 -2
BITMAP
0000
63fc
3204
1204
0204
c204
6204
23fc
0090
0090
1090
3090
2190
6111
4313
ce0e
ENDCHAR
STARTCHAR ch-196
ENCODING 196
SWIDTH 1000 0
DWIDTH 16 0
BBX 16 16 0 -2
BITMAP
0000
6248
3248
1248
0248
cfff
6248
2248
0248
1248
1278
3200
2200
6200
43fe
c000
ENDCHAR
STARTCHAR ch-197
ENCODING 197
SWIDTH 1000 0
DWIDTH 16 0
BBX 16 16 0 -2
BITMAP
0000
67fe
3402
1442
0442
c442
6442
24e2
04a2
14a2
14b2
3592
251a
6402
4402
c7fe
ENDCHAR
STARTCHAR ch-201
ENCODING 201
SWIDTH 1000 0
DWIDTH 16 0
BBX 16 16 0 -2
BITMAP
0080
0100
1ff8
1008
1008
1ff8
1008
1008
1ff8
0102
7d86
056c
0d30
391c
e107
0700
ENDCHAR
STARTCHAR ch-202
ENCODING 202
SWIDTH 1000 0
DWIDTH 16 0
BBX 16 16 0 -2
BITMAP
0020
6060
3040
13fe
0202
c202
6202
2202
03fe
1202
1202
3202
2202
6202
43fe
c000
ENDCHAR
STARTCHAR ch-204
ENCODING 204
SWIDTH 1000 0
DWIDTH 16 0
BBX 16 16 0 -2
BITMAP
00c0
6060
3020
1084
0084
c08c
6088
2298
0296
12b3
16e1
34c0
2080
6382
4ec6
c07c
ENDCHAR
STARTCHAR ch-211
ENCODING 211
SWIDTH 1000 0
DWIDTH 16 0
BBX 16 16 0 -2
BITMAP
0008
6788
3088
1088
0088
c788
6408
2418
0790
1090
1090
3092
2092
6192
411f
c731
ENDCHAR
STARTCHAR ch-213
ENCODING 213
SWIDTH 1000 0
DWIDTH 16 0
BBX 16 16 0 -2
BITMAP
0020
6020
3020
13fe
0020
c020
6020
27ff
0040
1040
10c4
3086
2082
619f
41f1
c701
ENDCHAR
STARTCHAR ch-215
ENCODING 215
SWIDTH 1000 0
DWIDTH 16 0
BBX 16 16 0 -2
BITMAP
0000
6000
37fe
1492
0492
c492
6492
2492
0592
151e
1702
3402
2402
6402
47fe
c000
ENDCHAR
STARTCHAR ch-217
ENCODING 217
SWIDTH 1000 0
DWIDTH 16 0
BBX 16 16 0 -2
BITMAP
0000
63fe
3020
1222
0326
c124
6124
2020
07ff
1020
1020
3020
2020
6020
4020
c020
ENDCHAR
STARTCHAR ch-219
ENCODING 219
SWIDTH 1000 0
DWIDTH 16 0
BBX 16 16 0 -2
BITMAP
0006
603c
37e0
1040
0040
c040
67fe
2002
0006
100c
1018
3030
20e0
6380
4ff0
c01f
ENDCHAR
STARTCHAR ch-221
ENCODING 221
SWIDTH 1000 0
DWIDTH 16 0
BBX 16 16 0 -2
BITMAP
0006
601c
31f0
1100
0100
c1ff
6108
2108
0138
110e
110b
3108
2308
6208
4608
c008
ENDCHAR
STARTCHAR ch-225
ENCODING 225
SWIDTH 1000 0
DWIDTH 16 0
BBX 16 16 0 -2
BITMAP
0100
6100
31fe
1302
0202
c3f2
6612
2012
0012
13f6
1204
321c
2200
6201
4303
c1fe
ENDCHAR
STARTCHAR ch-226
ENCODING 226
SWIDTH 1000 0
DWIDTH 16 0
BBX 16 16 0 -2
BITMAP
0020
6020
3020
13ff
0221
c222
6220
23fe
0282
12c6
1244
326c
2638
646c
4cc6
c183
ENDCHAR
STARTCHAR ch-227
ENCODING 227
SWIDTH 1000 0
DWIDTH 16 0
BBX 16 16 0 -2
BITMAP
0020
6020
3020
13fe
0000
c104
6104
2104
018c
1088
1088
3098
2010
6010
47ff
c000
ENDCHAR
STARTCHAR ch-229
ENCODING 229
SWIDTH 1000 0
DWIDTH 16 0
BBX 16 16 0 -2
BITMAP
0000
63fe
3202
1202
0202
c3fe
6200
2240
0246
125c
1270
3240
2640
6441
4c63
c03e
ENDCHAR
STARTCHAR ch-232
ENCODING 232
SWIDTH 1000 0
DWIDTH 16 0
BBX 16 16 0 -2
BITMAP
00c0
6060
3020
1000
03fe
c020
6020
2020
0020
13fe
1020
3020
2020
6020
47ff
c000
ENDCHAR
STARTCHAR ch-234
ENCODING 234
SWIDTH 1000 0
DWIDTH 16 0
BBX 16 16 0 -2
BITMAP
0000
61fc
3104
1104
0104
c1fc
6104
2104
0104
11fc
1104
3104
2104
6104
41fc
c000
ENDCHAR
STARTCHAR ch-239
ENCODING 239
SWIDTH 1000 0
DWIDTH 16 0
BBX 16 16 0 -2
BITMAP
0000
63fe
3202
1202
0202
c3fe
6210
2210
03ff
1210
1210
3218
2208
62cd
4387
ce02
ENDCHAR
STARTCHAR ch-240
ENCODING 240
SWIDTH 1000 0
DWIDTH 16 0
BBX 16 16 0 -2
BITMAP
0100
0100
7ffe
0100
3ffc
0240
ffff
0420
0910
310c
c913
0d30
07e0
1d38
710e
0700
ENDCHAR
STARTCHAR ch-241
ENCODING 241
SWIDTH 1000 0
DWIDTH 16 0
BBX 16 16 0 -2
BITMAP
0040
6040
3040
13fc
0244
c244
6244
2244
0fff
10a0
10b0
3190
2118
630c
4606
cc03
ENDCHAR
STARTCHAR ch-243
ENCODING 243
SWIDTH 1000 0
DWIDTH 16 0
BBX 16 16 0 -2
BITMAP
0380
60e0
3020
1000
07c0
c042
6066
2f6c
0178
0150
2358
2248
664c
4c46
d843
81c0
ENDCHAR
STARTCHAR ch-267
ENCODING 267
SWIDTH 1000 0
DWIDTH 16 0
BBX 16 16 0 -2
BITMAP
0104
618c
3088
13fe
0020
c020
6020
21fc
0020
1020
1020
37ff
2020
6020
4020
c020
ENDCHAR
STARTCHAR ch-268
ENCODING 268
SWIDTH 1000 0
DWIDTH 16 0
BBX 16 16 0 -2
BITMAP
0001
6fe9
3109
1109
0109
c3c9
6249
2249
0749
15c9
1089
3181
2101
6301
4601
cc07
ENDCHAR
STARTCHAR ch-274
ENCODING 274
SWIDTH 1000 0
DWIDTH 16 0
BBX 16 16 0 -2
BITMAP
0000
6fff
3090
1090
0090
c7fe
6492
2492
0492
1592
151e
3702
2402
6402
47fe
c000
ENDCHAR
STARTCHAR ch-279
ENCODING 279
SWIDTH 1000 0
DWIDTH 16 0
BBX 16 16 0 -2
BITMAP
0020
6120
3120
11fe
0320
c620
6020
27ff
0088
1088
1088
3088
2188
6109
4309
c607
ENDCHAR
STARTCHAR ch-281
ENCODING 281
SWIDTH 1000 0
DWIDTH 16 0
BBX 16 16 0 -2
BITMAP
0020
6120
3120
13fe
0620
c020
6020
27ff
00a8
10a8
11ac
3124
2326
6623
4020
c020
ENDCHAR
STARTCHAR ch-283
ENCODING 283
SWIDTH 1000 0
DWIDTH 16 0
BBX 16 16 0 -2
BITMAP
0080
6080
31fc
1104
038c
c6d8
6070
21dc
0707
1000
11fc
3104
2104
6104
4104
c1fc
ENDCHAR
STARTCHAR ch-286
ENCODING 286
SWIDTH 1000 0
DWIDTH 16 0
BBX 16 16 0 -2
BITMAP
0000
63fe
3202
1202
02fa
c202
6202
22fa
028a
128a
128a
32fa
2202
6202
4202
c206
ENDCHAR
STARTCHAR ch-287
ENCODING 287
SWIDTH 1000 0
DWIDTH 16 0
BBX 16 16 0 -2
BITMAP
0040
6040
3fff
1040
07fc
c044
67fc
2440
0440
17fe
10a2
30a2
21b6
6118
430c
ce07
ENDCHAR
STARTCHAR ch-293
ENCODING 293
SWIDTH 1000 0
DWIDTH 16 0
BBX 16 16 0 -2
BITMAP
0020
63fe
3022
1022
07ff
c022
6022
23fe
0020
1020
13fe
3020
2020
67ff
4020
c020
ENDCHAR
STARTCHAR ch-297
ENCODING 297
SWIDTH 1000 0
DWIDTH 16 0
BBX 16 16 0 -2
BITMAP
0040
6040
37fe
1442
0442
c7fe
6442
2442
07fe
1040
1064
302c
2038
6071
41dd
cf07
ENDCHAR
STARTCHAR ch-298
ENCODING 298
SWIDTH 1000 0
DWIDTH 16 0
BBX 16 16 0 -2
BITMAP
0088
6088
3088
13fe
0088
c088
6088
2088
0088
17ff
1000
3000
2088
618c
4306
c603
ENDCHAR
STARTCHAR ch-299
ENCODING 299
SWIDTH 1000 0
DWIDTH 16 0
BBX 16 16 0 -2
BITMAP
0020
6060
3040
13fc
02a4
c2a4
62a4
22a4
02a4
12a4
12a4
32a4
22a4
62a4
4fff
c000
ENDCHAR
STARTCHAR ch-306
ENCODING 306
SWIDTH 1000 0
DWIDTH 16 0
BBX 16 16 0 -2
BITMAP
4202
6222
2222
0222
0222
8b32
caaa
5aaa
1222
0222
2222
2222
6622
4422
4c02
d802
ENDCHAR
STARTCHAR ch-307
ENCODING 307
SWIDTH 1000 0
DWIDTH 16 0
BBX 16 16 0 -2
BITMAP
0100
6100
310f
1109
0fe9
c229
6229
2269
0649
1449
14c9
3789
21c9
6369
462f
cc00
ENDCHAR
STARTCHAR ch-309
ENCODING 309
SWIDTH 1000 0
DWIDTH 16 0
BBX 16 16 0 -2
BITMAP
0200
6200
33fe
1602
0402
cdf2
6112
2112
01f2
1112
1112
3112
21f2
6006
4004
c01c
ENDCHAR
STARTCHAR ch-310
ENCODING 310
SWIDTH 1000 0
DWIDTH 16 0
BBX 16 16 0 -2
BITMAP
0100
6100
33fe
1202
0602
c0a2
62aa
224a
024a
12aa
12aa
320a
23fa
6006
4004
c01c
ENDCHAR
STARTCHAR ch-312
ENCODING 312
SWIDTH 1000 0
DWIDTH 16 0
BBX 16 16 0 -2
BITMAP
0020
6222
3326
1124
0124
c020
6020
27ff
0088
1088
1088
3088
2188
6109
4309
c607
ENDCHAR
STARTCHAR ch-315
ENCODING 315
SWIDTH 1000 0
DWIDTH 16 0
BBX 16 16 0 -2
BITMAP
0006
603c
33e0
1020
0020
c020
67ff
2020
0020
1020
13fe
3202
2202
6202
4202
c3fe
ENDCHAR
STARTCHAR ch-317
ENCODING 317
SWIDTH 1000 0
DWIDTH 16 0
BBX 16 16 0 -2
BITMAP
0020
6070
3050
10d8
018c
c306
66fb
2000
0000
11fc
1104
3104
2104
6104
4104
c1fc
ENDCHAR
STARTCHAR ch-318
ENCODING 318
SWIDTH 1000 0
DWIDTH 16 0
BBX 16 16 0 -2
BITMAP
0006
603c
33e0
1206
021c
c270
6242
2246
026c
1270
1250
3258
264c
6446
4c43
c040
ENDCHAR
STARTCHAR ch-321
ENCODING 321
SWIDTH 1000 0
DWIDTH 16 0
BBX 16 16 0 -2
BITMAP
0020
6020
37ff
1080
0084
c13e
63e2
2000
0124
1124
1124
3124
2124
6125
4325
c603
ENDCHAR
STARTCHAR ch-324
ENCODING 324
SWIDTH 1000 0
DWIDTH 16 0
BBX 16 16 0 -2
BITMAP
0080
60fc
3188
1310
0020
c3fe
6022
2022
07ff
1022
1022
33fe
2020
6020
4020
c0e0
ENDCHAR
STARTCHAR ch-325
ENCODING 325
SWIDTH 1000 0
DWIDTH 16 0
BBX 16 16 0 -2
BITMAP
0048
6044
37ff
1040
0040
c3fe
6040
2040
07ff
1020
1022
3036
201c
6039
40ed
c787
ENDCHAR
STARTCHAR ch-345
ENCODING 345
SWIDTH 1000 0
DWIDTH 16 0
BBX 16 16 0 -2
BITMAP
0202
620e
3238
1220
0fa0
c23f
6224
2224
03a4
2e24
2224
2224
6264
4244
42c4
c604
ENDCHAR
STARTCHAR ch-346
ENCODING 346
SWIDTH 1000 0
DWIDTH 16 0
BBX 16 16 0 -2
BITMAP
0100
6304
3204
17fe
0092
c190
631f
2680
00fc
1184
130c
36d8
2070
60d8
418c
c707
ENDCHAR
STARTCHAR ch-348
ENCODING 348
SWIDTH 1000 0
DWIDTH 16 0
BBX 16 16 0 -2
BITMAP
000c
6038
31e0
1100
01fe
c108
6108
2108
0108
1108
1fff
3000
2108
630c
4606
cc03
ENDCHAR
STARTCHAR ch-355
ENCODING 355
SWIDTH 1000 0
DWIDTH 16 0
BBX 16 16 0 -2
BITMAP
0040
6040
37fe
1402
0402
c1f8
6000
2000
07fe
1090
1090
3090
2190
6111
4313
c60e
ENDCHAR
STARTCHAR ch-356
ENCODING 356
SWIDTH 1000 0
DWIDTH 16 0
BBX 16 16 0 -2
BITMAP
0040
6040
37fe
1402
0442
c040
6fff
2080
0080
11a0
1120
3360
2244
66c4
4c9e
c1f3
ENDCHAR
STARTCHAR ch-358
ENCODING 358
SWIDTH 1000 0
DWIDTH 16 0
BBX 16 16 0 -2
BITMAP
0024
6022
37ff
1020
0020
c3fe
6222
2222
03fe
1222
1222
33fe
2222
6222
4222
c226
ENDCHAR
STARTCHAR ch-361
ENCODING 361
SWIDTH 1000 0
DWIDTH 16 0
BBX 16 16 0 -2
BITMAP
0020
6120
3120
13fe
0220
c420
6020
27ff
0000
1000
13fe
3202
2202
6202
4202
c3fe
ENDCHAR
STARTCHAR ch-362
ENCODING 362
SWIDTH 1000 0
DWIDTH 16 0
BBX 16 16 0 -2
BITMAP
0040
6040
33fc
1204
0204
c3fc
6204
2204
03fc
1221
1233
3216
2218
62cc
4386
ce03
ENDCHAR
STARTCHAR ch-364
ENCODING 364
SWIDTH 1000 0
DWIDTH 16 0
BBX 16 16 0 -2
BITMAP
0000
63fe
3222
1222
03fe
c222
6222
2222
03fe
1020
3020
23fe
6020
4020
c7ff
0000
ENDCHAR
STARTCHAR ch-366
ENCODING 366
SWIDTH 1000 0
DWIDTH 16 0
BBX 16 16 0 -2
BITMAP
000c
6038
37e2
1246
036c
c128
63fe
2004
0018
1020
17ff
3020
2020
6020
4020
c0e0
ENDCHAR
STARTCHAR ch-372
ENCODING 372
SWIDTH 1000 0
DWIDTH 16 0
BBX 16 16 0 -2
BITMAP
0088
618c
3306
1623
0070
c0d8
618c
2306
0603
1000
13fe
3202
2202
6202
4202
c3fe
ENDCHAR
STARTCHAR ch-375
ENCODING 375
SWIDTH 1000 0
DWIDTH 16 0
BBX 16 16 0 -2
BITMAP
0100
6100
33fe
1200
0600
c1fc
6124
2124
0124
17ff
1244
3244
2244
63ff
4008
c038
ENDCHAR
STARTCHAR ch-376
ENCODING 376
SWIDTH 1000 0
DWIDTH 16 0
BBX 16 16 0 -2
BITMAP
0000
61fc
3004
11fc
0004
c1fc
6000
27ff
0401
15fd
1084
30cc
2058
6070
41dc
c707
ENDCHAR
STARTCHAR ch-377
ENCODING 377
SWIDTH 1000 0
DWIDTH 16 0
BBX 16 16 0 -2
BITMAP
0020
6020
37ff
1020
0124
c124
6124
22aa
02aa
1471
1050
30d8
2088
618c
4306
c603
ENDCHAR
STARTCHAR ch-389
ENCODING 389
SWIDTH 1000 0
DWIDTH 16 0
BBX 16 16 0 -2
BITMAP
0000
61fc
3104
1104
01fc
c104
6104
21fc
0020
1020
13fe
3020
2020
6020
47ff
c000
ENDCHAR
STARTCHAR ch-392
ENCODING 392
SWIDTH 1000 0
DWIDTH 16 0
BBX 16 16 0 -2
BITMAP
0020
6222
3326
1124
0020
c3fe
6202
2202
03fe
1202
1202
33fe
2202
6202
4202
c20e
ENDCHAR
STARTCHAR ch-396
ENCODING 396
SWIDTH 1000 0
DWIDTH 16 0
BBX 16 16 0 -2
BITMAP
0000
67fe
3004
1088
0050
c3fe
6222
2222
03fe
1222
1222
33fe
2222
6222
4222
c22e
ENDCHAR
STARTCHAR ch-398
ENCODING 398
SWIDTH 1000 0
DWIDTH 16 0
BBX 16 16 0 -2
BITMAP
0002
6f0e
3278
1208
0408
c448
6f4e
2148
0548
1548
1548
3748
22ff
6700
4dc0
d87f
ENDCHAR
STARTCHAR ch-403
ENCODING 403
SWIDTH 1000 0
DWIDTH 16 0
BBX 16 16 0 -2
BITMAP
0000
63fe
3202
1202
03fe
c000
63fe
2202
0202
13fe
1202
3202
23fe
6202
4202
c20e
ENDCHAR
STARTCHAR ch-405
ENCODING 405
SWIDTH 1000 0
DWIDTH 16 0
BBX 16 16 0 -2
BITMAP
0104
6088
37fe
1022
0022
c3fe
6220
2220
03ff
1061
1061
30a3
21a2
632e
4620
c020
ENDCHAR
STARTCHAR ch-409
ENCODING 409
SWIDTH 1000 0
DWIDTH 16 0
BBX 16 16 0 -2
BITMAP
0000
67ff
3000
13fe
0202
c202
63fe
2220
0220
13ff
1220
3670
2450
6cd8
418c
c707
ENDCHAR
STARTCHAR ch-411
ENCODING 411
SWIDTH 1000 0
DWIDTH 16 0
BBX 16 16 0 -2
BITMAP
0040
6040
37ff
1040
03fe
c040
67ff
2080
0084
17ff
1104
3344
2264
6624
4c04
c01c
ENDCHAR
STARTCHAR ch-412
ENCODING 412
SWIDTH 1000 0
DWIDTH 16 0
BBX 16 16 0 -2
BITMAP
0020
6020
37ff
1020
0020
c3fe
6000
27ff
0401
1489
1088
3088
2088
6189
4309
c607
ENDCHAR
STARTCHAR ch-431
ENCODING 431
SWIDTH 1000 0
DWIDTH 16 0
BBX 16 16 0 -2
BITMAP
0000
67ff
3400
1410
04fe
c410
6410
25ff
0400
0410
24fe
2c10
6810
5810
c1ff
0000
ENDCHAR
STARTCHAR ch-434
ENCODING 434
SWIDTH 1000 0
DWIDTH 16 0
BBX 16 16 0 -2
BITMAP
0020
6020
37ff
1090
0090
c19e
6112
2332
052a
1166
1114
311c
2108
611c
4136
c163
ENDCHAR
STARTCHAR ch-437
ENCODING 437
SWIDTH 1000 0
DWIDTH 16 0
BBX 16 16 0 -2
BITMAP
0000
6fff
3080
1080
00e0
c42a
652a
24b2
0422
14b2
152a
362a
24e2
6402
47fe
c000
ENDCHAR
STARTCHAR ch-440
ENCODING 440
SWIDTH 1000 0
DWIDTH 16 0
BBX 16 16 0 -2
BITMAP
0000
67fe
3402
1442
0442
c5fa
6442
2442
04f2
1492
1492
3492
24f2
6402
47fe
c000
ENDCHAR
STARTCHAR ch-444
ENCODING 444
SWIDTH 1000 0
DWIDTH 16 0
BBX 16 16 0 -2
BITMAP
0020
6020
3020
17ff
0000
c1fc
6104
2104
0104
11fc
1020
3124
2124
6326
4623
c0e0
ENDCHAR
STARTCHAR ch-448
ENCODING 448
SWIDTH 1000 0
DWIDTH 16 0
BBX 16 16 0 -2
BITMAP
0020
6020
37ff
1401
0401
c3fe
6020
2020
0120
113e
1120
3120
2320
62a0
4670
cc1f
ENDCHAR
STARTCHAR ch-453
ENCODING 453
SWIDTH 1000 0
DWIDTH 16 0
BBX 16 16 0 -2
BITMAP
0202
620e
3238
1fa0
0220
c23f
6724
26a4
0aa4
0a24
2224
2224
2264
6244
42c4
c204
ENDCHAR
STARTCHAR ch-454
ENCODING 454
SWIDTH 1000 0
DWIDTH 16 0
BBX 16 16 0 -2
BITMAP
0004
6318
30e0
131c
0040
cfff
6080
21fc
0304
15fc
1104
31fc
2104
6104
4104
c11c
ENDCHAR
STARTCHAR ch-455
ENCODING 455
SWIDTH 1000 0
DWIDTH 16 0
BBX 16 16 0 -2
BITMAP
0108
6108
37fe
1108
0108
c1f8
6108
2108
01f8
1108
1108
3fff
2000
6108
430c
c606
ENDCHAR
STARTCHAR ch-459
ENCODING 459
SWIDTH 1000 0
DWIDTH 16 0
BBX 16 16 0 -2
BITMAP
0108
6108
3108
17bf
0108
c108
639c
235c
052a
052a
2949
2108
6108
4108
4108
c108
ENDCHAR
STARTCHAR ch-460
ENCODING 460
SWIDTH 1000 0
DWIDTH 16 0
BBX 16 16 0 -2
BITMAP
0020
6222
3326
1124
0124
c020
63fe
2202
0202
12fa
128a
328a
22fa
6202
4202
c20e
ENDCHAR
STARTCHAR ch-465
ENCODING 465
SWIDTH 1000 0
DWIDTH 16 0
BBX 16 16 0 -2
BITMAP
0200
627e
3212
1392
0212
c216
6214
2fd4
021c
2208
2a88
2a9c
6ad4
5a56
5232
c663
ENDCHAR
STARTCHAR ch-466
ENCODING 466
SWIDTH 1000 0
DWIDTH 16 0
BBX 16 16 0 -2
BITMAP
0020
6020
37ff
1020
03fe
c022
67ff
2022
03fe
1040
17ff
3084
2108
63f0
405e
c783
ENDCHAR
STARTCHAR ch-469
ENCODING 469
SWIDTH 1000 0
DWIDTH 16 0
BBX 16 16 0 -2
BITMAP
0020
6020
33fe
1020
0020
c7ff
6088
2188
030f
1620
1020
33fe
2020
6020
47ff
c000
ENDCHAR
STARTCHAR ch-472
ENCODING 472
SWIDTH 1000 0
DWIDTH 16 0
BBX 16 16 0 -2
BITMAP
0200
6200
37fe
1402
0a02
c3f2
6482
2082
07f2
1082
1492
3492
2492
67f6
4004
c01c
ENDCHAR
STARTCHAR ch-473
ENCODING 473
SWIDTH 1000 0
DWIDTH 16 0
BBX 16 16 0 -2
BITMAP
0020
6020
37ff
1401
0401
c1fc
6000
2000
07ff
1020
1124
3124
2326
6222
4623
c0e0
ENDCHAR
STARTCHAR ch-478
ENCODING 478
SWIDTH 1000 0
DWIDTH 16 0
BBX 16 16 0 -2
BITMAP
0224
6224
3224
1fa4
0266
c242
6742
26d3
0610
0a30
2a20
2220
6262
4242
424f
c2f9
ENDCHAR
STARTCHAR ch-481
ENCODING 481
SWIDTH 1000 0
DWIDTH 16 0
BBX 16 16 0 -2
BITMAP
0040
6244
324c
16e8
04b0
c198
630c
2647
0040
1246
16ec
34a0
21b0
6118
430c
ce07
ENDCHAR
STARTCHAR ch-484
ENCODING 484
SWIDTH 1000 0
DWIDTH 16 0
BBX 16 16 0 -2
BITMAP
0208
6208
321c
1fd4
0414
c436
67a2
24e3
0498
048c
2484
2480
6c80
4898
488c
d984
ENDCHAR
STARTCHAR ch-486
ENCODING 486
SWIDTH 1000 0
DWIDTH 16 0
BBX 16 16 0 -2
BITMAP
0020
6070
3050
10d8
018c
c306
66fb
2020
0020
13fe
1020
3222
2326
6124
47ff
c000
ENDCHAR
STARTCHAR ch-488
ENCODING 488
SWIDTH 1000 0
DWIDTH 16 0
BBX 16 16 0 -2
BITMAP
0006
603c
33e2
1126
0094
c3fe
6022
2022
07ff
1022
1022
33fe
2020
6020
4020
c0e0
ENDCHAR
STARTCHAR ch-490
ENCODING 490
SWIDTH 1000 0
DWIDTH 16 0
BBX 16 16 0 -2
BITMAP
0040
60e0
31b0
131c
0e07
c1f8
6000
2000
07fe
1492
1492
37fe
2492
6492
4492
c496
ENDCHAR
STARTCHAR ch-491
ENCODING 491
SWIDTH 1000 0
DWIDTH 16 0
BBX 16 16 0 -2
BITMAP
600e
33f8
1002
0246
c364
6120
201c
01f0
0020
1020
17ff
3020
2020
6020
43fe
c000
ENDCHAR
STARTCHAR ch-492
ENCODING 492
SWIDTH 1000 0
DWIDTH 16 0
BBX 16 16 0 -2
BITMAP
0020
6020
33fe
1000
0088
c088
61dc
2356
0000
1020
17ff
3020
2020
6020
4020
c020
ENDCHAR
STARTCHAR ch-494
ENCODING 494
SWIDTH 1000 0
DWIDTH 16 0
BBX 16 16 0 -2
BITMAP
0044
60cc
3088
11ff
0310
c510
6110
21fe
0110
1110
1110
31fe
2110
6110
4110
c1ff
ENDCHAR
STARTCHAR ch-497
ENCODING 497
SWIDTH 1000 0
DWIDTH 16 0
BBX 16 16 0 -2
BITMAP
0000
67fe
3492
1492
0190
c31f
6600
2020
0020
17ff
10a8
30a8
21ac
6326
4623
c020
ENDCHAR
STARTCHAR ch-499
ENCODING 499
SWIDTH 1000 0
DWIDTH 16 0
BBX 16 16 0 -2
BITMAP
0020
6020
37ff
1000
01fc
c104
61fc
2000
03fe
100c
1010
37ff
2020
6020
4020
c0e0
ENDCHAR
STARTCHAR ch-501
ENCODING 501
SWIDTH 1000 0
DWIDTH 16 0
BBX 16 16 0 -2
BITMAP
0402
6492
3492
1492
079e
c402
6402
27fe
0402
1402
179e
3492
2492
6c92
4892
d802
ENDCHAR
STARTCHAR ch-503
ENCODING 503
SWIDTH 1000 0
DWIDTH 16 0
BBX 16 16 0 -2
BITMAP
0000
63fc
3204
1204
03fc
c204
6204
23fc
0000
1210
1216
33dc
2210
6211
43d3
ce0e
ENDCHAR
STARTCHAR ch-505
ENCODING 505
SWIDTH 1000 0
DWIDTH 16 0
BBX 16 16 0 -2
BITMAP
0080
6080
3fff
1110
0150
c248
67fc
2a46
0245
13fc
1244
3244
23fc
6041
4043
c03e
ENDCHAR
STARTCHAR ch-506
ENCODING 506
SWIDTH 1000 0
DWIDTH 16 0
BBX 16 16 0 -2
BITMAP
0090
6088
30fe
17c0
006c
c030
61dd
2707
0048
1044
107e
37e0
2036
6019
40ed
c787
ENDCHAR
STARTCHAR ch-507
ENCODING 507
SWIDTH 1000 0
DWIDTH 16 0
BBX 16 16 0 -2
BITMAP
000c
6078
37c0
1080
0080
cfff
6110
2318
060c
2c87
2080
24a4
64b6
4c93
4891
c180
ENDCHAR
ENDFONT
